<svg width="250" height="250" viewBox="0 0 250 250" fill="none" xmlns="http://www.w3.org/2000/svg">
<path d="M125 10C61.5465 10 10 61.5465 10 125C10 188.454 61.5465 240 125 240C188.454 240 240 188.454 240 125C240 61.5465 188.454 10 125 10ZM125 20C183.049 20 230 66.9509 230 125C230 183.049 183.049 230 125 230C66.9509 230 20 183.049 20 125C20 66.9509 66.9509 20 125 20Z" fill="#015F43"/>
<path d="M121.413 36.4479C122.335 35.4976 123.597 34.9523 124.922 34.9316C125.591 34.9212 126.255 35.0451 126.875 35.296C127.495 35.5469 128.059 35.9196 128.532 36.3922C129.006 36.8648 129.38 37.4277 129.632 38.0474C129.884 38.6671 130.009 39.3311 130 40V110.879C132.921 111.912 135.451 113.824 137.241 116.352C139.032 118.881 139.996 121.902 140 125C140 128.978 138.42 132.794 135.607 135.607C132.794 138.42 128.978 140 125 140C122.765 139.995 120.56 139.492 118.545 138.525L88.5351 168.535C88.0744 169.015 87.5225 169.398 86.9119 169.662C86.3013 169.926 85.6441 170.065 84.9789 170.072C84.3137 170.079 83.6538 169.953 83.0379 169.702C82.422 169.45 81.8625 169.078 81.3921 168.608C80.9217 168.137 80.5499 167.578 80.2985 166.962C80.047 166.346 79.921 165.686 79.9277 165.021C79.9345 164.356 80.0739 163.699 80.3379 163.088C80.6018 162.477 80.9849 161.926 81.4648 161.465L111.475 131.455C110.508 129.44 110.005 127.235 110 125C110.002 121.9 110.965 118.877 112.756 116.346C114.546 113.816 117.077 111.902 120 110.869V40C119.982 38.6756 120.49 37.3981 121.413 36.4479Z" fill="#00B37E"/>
</svg>
